<svg xmlns="http://www.w3.org/2000/svg" version="1.1" xmlns:xlink="http://www.w3.org/1999/xlink" width="1000" height="1000"><style>
    #light-icon {
      display: inline;
    }
    #dark-icon {
      display: none;
    }

    @media (prefers-color-scheme: dark) {
      #light-icon {
        display: none;
      }
      #dark-icon {
        display: inline;
      }
    }
  </style><g id="light-icon"><svg xmlns="http://www.w3.org/2000/svg" version="1.1" xmlns:xlink="http://www.w3.org/1999/xlink" width="1000" height="1000"><g><g transform="matrix(14.492753623188406,0,0,14.492753623188406,0,0)"><svg xmlns="http://www.w3.org/2000/svg" version="1.1" xmlns:xlink="http://www.w3.org/1999/xlink" width="69" height="69"><svg width="69" height="69" viewBox="0 0 69 69" fill="none" xmlns="http://www.w3.org/2000/svg">
<path d="M27.027 0C12.1081 0 0 12.1081 0 27.027C0 41.9459 12.1081 54.0541 27.027 54.0541C41.9459 54.0541 54.0541 41.9614 54.0541 27.027C54.0541 12.0927 41.9614 0 27.027 0ZM27.027 47.0579C15.9691 47.0579 7.01158 38.0849 7.01158 27.027C7.01158 15.9691 15.9691 7.01158 27.027 7.01158C38.0849 7.01158 47.0425 15.9846 47.0425 27.027C47.0425 38.0695 38.0849 47.0579 27.027 47.0579Z" fill="#022448"></path>
<path d="M42.3166 25.9768L27.8764 12.7722C27.3668 12.3861 26.6718 12.3861 26.1622 12.7722L11.722 26.0849C10.6718 26.9189 11.2587 28.5869 12.5869 28.5869H14.8263V39.4903C15.5676 40.2008 16.3707 40.8494 17.251 41.4209C20.1544 43.3359 23.5367 44.3552 27.0425 44.3552C31.7375 44.3552 36.0154 42.5328 39.1815 39.5521V28.5097H41.4363C42.7645 28.5097 43.3514 26.8108 42.3012 25.9923L42.3166 25.9768ZM25.4981 37.7452H22.888C22.471 37.7452 22.1158 37.4054 22.1158 36.973V34.3629C22.1158 33.9459 22.4556 33.5907 22.888 33.5907H25.4981C25.9151 33.5907 26.2703 33.9305 26.2703 34.3629V36.973C26.2703 37.39 25.9305 37.7452 25.4981 37.7452ZM25.4981 32.0772H22.888C22.471 32.0772 22.1158 31.7375 22.1158 31.305V28.695C22.1158 28.278 22.4556 27.9228 22.888 27.9228H25.4981C25.9151 27.9228 26.2703 28.2625 26.2703 28.695V31.305C26.2703 31.722 25.9305 32.0772 25.4981 32.0772ZM31.166 37.7452H28.556C28.139 37.7452 27.7838 37.4054 27.7838 36.973V34.3629C27.7838 33.9459 28.1236 33.5907 28.556 33.5907H31.166C31.583 33.5907 31.9382 33.9305 31.9382 34.3629V36.973C31.9382 37.39 31.5985 37.7452 31.166 37.7452ZM31.166 32.0772H28.556C28.139 32.0772 27.7838 31.7375 27.7838 31.305V28.695C27.7838 28.278 28.1236 27.9228 28.556 27.9228H31.166C31.583 27.9228 31.9382 28.2625 31.9382 28.695V31.305C31.9382 31.722 31.5985 32.0772 31.166 32.0772Z" fill="#ED8900"></path>
<path d="M43.444 43.444L50.6873 50.6873" stroke="#022448" stroke-width="4" stroke-miterlimit="10"></path>
<path d="M52.0874 48.8944L48.8985 52.0832C47.9697 53.012 47.9697 54.5179 48.8985 55.4467L60.7474 67.2955C61.6762 68.2243 63.1821 68.2243 64.1109 67.2955L67.2997 64.1067C68.2285 63.1779 68.2285 61.672 67.2997 60.7432L55.4509 48.8944C54.5221 47.9655 53.0162 47.9655 52.0874 48.8944Z" fill="#ED8900"></path>
</svg></svg></g></g></svg></g><g id="dark-icon"><svg xmlns="http://www.w3.org/2000/svg" version="1.1" xmlns:xlink="http://www.w3.org/1999/xlink" width="1000" height="1000"><g><g transform="matrix(14.492753623188406,0,0,14.492753623188406,0,0)"><svg xmlns="http://www.w3.org/2000/svg" version="1.1" xmlns:xlink="http://www.w3.org/1999/xlink" width="69" height="69"><svg width="69" height="69" viewBox="0 0 69 69" fill="none" xmlns="http://www.w3.org/2000/svg">
<path d="M27.027 0C12.1081 0 0 12.1081 0 27.027C0 41.9459 12.1081 54.0541 27.027 54.0541C41.9459 54.0541 54.0541 41.9614 54.0541 27.027C54.0541 12.0927 41.9614 0 27.027 0ZM27.027 47.0579C15.9691 47.0579 7.01158 38.0849 7.01158 27.027C7.01158 15.9691 15.9691 7.01158 27.027 7.01158C38.0849 7.01158 47.0425 15.9846 47.0425 27.027C47.0425 38.0695 38.0849 47.0579 27.027 47.0579Z" fill="white"></path>
<path d="M42.3166 25.9768L27.8764 12.7722C27.3668 12.3861 26.6718 12.3861 26.1622 12.7722L11.722 26.085C10.6718 26.9189 11.2587 28.5869 12.5869 28.5869H14.8263V39.4904C15.5676 40.2008 16.3707 40.8494 17.251 41.4209C20.1544 43.3359 23.5367 44.3552 27.0425 44.3552C31.7375 44.3552 36.0154 42.5328 39.1815 39.5521V28.5097H41.4363C42.7645 28.5097 43.3514 26.8108 42.3012 25.9923L42.3166 25.9768ZM25.4981 37.7452H22.888C22.471 37.7452 22.1158 37.4054 22.1158 36.973V34.3629C22.1158 33.946 22.4556 33.5907 22.888 33.5907H25.4981C25.9151 33.5907 26.2703 33.9305 26.2703 34.3629V36.973C26.2703 37.39 25.9305 37.7452 25.4981 37.7452ZM25.4981 32.0772H22.888C22.471 32.0772 22.1158 31.7375 22.1158 31.305V28.695C22.1158 28.278 22.4556 27.9228 22.888 27.9228H25.4981C25.9151 27.9228 26.2703 28.2626 26.2703 28.695V31.305C26.2703 31.722 25.9305 32.0772 25.4981 32.0772ZM31.166 37.7452H28.556C28.139 37.7452 27.7838 37.4054 27.7838 36.973V34.3629C27.7838 33.946 28.1236 33.5907 28.556 33.5907H31.166C31.583 33.5907 31.9382 33.9305 31.9382 34.3629V36.973C31.9382 37.39 31.5985 37.7452 31.166 37.7452ZM31.166 32.0772H28.556C28.139 32.0772 27.7838 31.7375 27.7838 31.305V28.695C27.7838 28.278 28.1236 27.9228 28.556 27.9228H31.166C31.583 27.9228 31.9382 28.2626 31.9382 28.695V31.305C31.9382 31.722 31.5985 32.0772 31.166 32.0772Z" fill="#ED8900"></path>
<path d="M43.444 43.444L50.6873 50.6873" stroke="white" stroke-width="4" stroke-miterlimit="10"></path>
<path d="M52.0874 48.8943L48.8985 52.0832C47.9697 53.012 47.9697 54.5179 48.8985 55.4467L60.7474 67.2955C61.6762 68.2243 63.1821 68.2243 64.1109 67.2955L67.2997 64.1067C68.2285 63.1779 68.2285 61.672 67.2997 60.7432L55.4509 48.8943C54.5221 47.9655 53.0162 47.9655 52.0874 48.8943Z" fill="#ED8900"></path>
</svg></svg></g></g></svg></g></svg>